<svg width="629" height="493" viewBox="0 0 629 493" fill="none" xmlns="http://www.w3.org/2000/svg">
<g opacity="0.5" clip-path="url(#clip0_152_8059)">
<path d="M470.959 377.487C465.388 377.487 459.818 377.073 454.247 376.038C261.751 341.053 40.1635 275.222 -169.87 190.761C-217.53 171.509 -240.638 117.479 -221.45 69.6587C-202.262 21.8387 -148.413 -1.3467 -100.753 17.9055C97.9331 97.8124 306.729 159.916 487.258 192.831C537.807 201.94 571.23 250.381 562.152 301.099C554.106 346.021 515.111 377.487 470.959 377.487Z" fill="#1F278B"/>
<path d="M463.944 12.5232C461.675 12.5232 459.611 12.5232 457.342 12.3161C144.561 -9.62722 -103.229 -44.6124 -300.058 -94.7095C-349.781 -107.337 -379.903 -158.055 -367.112 -207.946C-354.526 -257.836 -303.978 -287.853 -254.255 -275.225C-68.3607 -227.819 168.701 -194.49 470.34 -173.374C521.507 -169.855 560.089 -125.347 556.582 -74.0082C553.074 -24.9462 512.223 12.5232 463.944 12.5232Z" fill="#1F278B"/>
<path d="M30.4665 493C-18.8439 493 -59.6952 454.289 -62.1711 404.399C-64.6469 353.06 -25.2398 309.38 26.1338 306.896C179.842 299.443 314.569 264.458 426.394 202.768C471.372 177.927 527.697 194.488 552.455 239.617C577.214 284.745 560.708 341.26 515.73 366.101C378.94 441.454 217.186 484.099 35.0055 493C33.355 493 31.9107 493 30.4665 493Z" fill="url(#paint0_linear_152_8059)"/>
<path d="M-135.208 197.593C-182.662 197.593 -223.1 161.365 -227.639 112.924C-232.385 61.7922 -194.835 16.2494 -143.667 11.6951C109.9 -11.6973 234.929 -60.7594 419.173 -162.196C464.151 -186.83 520.476 -170.476 545.234 -125.347C569.786 -80.2186 553.487 -23.704 508.509 1.1375C412.983 53.7188 329.011 95.5354 229.978 128.243C127.024 162.193 13.7546 184.137 -126.543 197.179C-129.431 197.386 -132.32 197.593 -135.208 197.593Z" fill="url(#paint1_linear_152_8059)"/>
</g>
<defs>
<linearGradient id="paint0_linear_152_8059" x1="-62.0075" y1="340.203" x2="563.456" y2="344.117" gradientUnits="userSpaceOnUse">
<stop stop-color="#C370FE"/>
<stop offset="1" stop-color="#14359F"/>
</linearGradient>
<linearGradient id="paint1_linear_152_8059" x1="-227.7" y1="9.62479" x2="556.012" y2="14.6201" gradientUnits="userSpaceOnUse">
<stop stop-color="#C370FE"/>
<stop offset="1" stop-color="#14359F"/>
</linearGradient>
<clipPath id="clip0_152_8059">
<rect width="999" height="921" fill="white" transform="translate(-370 -428)"/>
</clipPath>
</defs>
</svg>
