<svg width="359" height="569" viewBox="0 0 359 569" fill="none" xmlns="http://www.w3.org/2000/svg">
<g opacity="0.5" clip-path="url(#clip0_152_8051)">
<path d="M563.165 539.615C559.434 539.615 555.704 539.338 551.973 538.644C423.064 515.207 274.674 471.106 134.021 414.523C102.105 401.626 86.6301 365.43 99.4796 333.394C112.329 301.358 148.39 285.826 180.307 298.723C313.361 352.255 453.185 393.859 574.08 415.91C607.931 422.012 630.313 454.464 624.234 488.441C618.846 518.535 592.732 539.615 563.165 539.615Z" fill="#1F278B"/>
<path d="M558.467 295.117C556.947 295.117 555.566 295.117 554.046 294.979C344.586 280.278 178.649 256.841 46.8383 223.279C13.5403 214.82 -6.63195 180.843 1.93434 147.42C10.3625 113.997 44.2131 93.8883 77.5111 102.348C201.999 134.106 360.751 156.434 562.75 170.58C597.015 172.938 622.852 202.754 620.504 237.148C618.155 270.016 590.798 295.117 558.467 295.117Z" fill="#1F278B"/>
<path d="M105.835 228.133C85.8011 228.133 67.425 227.024 51.8122 224.389C17.9616 218.703 -4.83583 186.39 0.82898 152.413C6.49379 118.435 38.6865 95.5526 72.5371 101.239C104.868 106.786 189.149 102.764 328.559 75.3049C435.499 54.2251 538.847 25.7951 580.021 5.9635C610.97 -8.87556 648.137 4.29931 662.921 35.3643C677.704 66.4292 664.579 103.735 633.629 118.574C571.593 148.391 443.375 179.733 352.462 197.762C289.458 210.243 185.004 228.133 105.835 228.133Z" fill="url(#paint0_linear_152_8051)"/>
<path d="M268.18 617C235.159 617 207.802 591.066 206.144 557.644C204.486 523.25 230.875 493.988 265.279 492.324C368.213 487.331 458.435 463.894 533.321 422.567C563.441 405.925 601.16 417.019 617.74 447.252C634.32 477.485 623.267 515.345 593.147 531.987C501.543 582.468 393.221 611.037 271.22 617C270.115 617 269.147 617 268.18 617Z" fill="url(#paint1_linear_152_8051)"/>
<path d="M157.233 419.1C125.455 419.1 98.3742 394.83 95.3346 362.379C92.1567 328.124 117.303 297.614 151.568 294.563C321.374 278.891 405.103 246.024 528.485 178.069C558.605 161.566 596.325 172.522 612.905 202.755C629.346 232.987 618.431 270.848 588.311 287.49C524.34 322.715 468.107 350.729 401.787 372.641C332.842 395.385 256.989 410.085 163.036 418.822C161.102 418.961 159.167 419.1 157.233 419.1Z" fill="url(#paint2_linear_152_8051)"/>
</g>
<defs>
<linearGradient id="paint0_linear_152_8051" x1="0.25823" y1="112.558" x2="668.422" y2="118.464" gradientUnits="userSpaceOnUse">
<stop stop-color="#C370FE"/>
<stop offset="1" stop-color="#14359F"/>
</linearGradient>
<linearGradient id="paint1_linear_152_8051" x1="206.253" y1="514.637" x2="625.107" y2="517.258" gradientUnits="userSpaceOnUse">
<stop stop-color="#C370FE"/>
<stop offset="1" stop-color="#14359F"/>
</linearGradient>
<linearGradient id="paint2_linear_152_8051" x1="95.2937" y1="293.176" x2="620.122" y2="296.52" gradientUnits="userSpaceOnUse">
<stop stop-color="#C370FE"/>
<stop offset="1" stop-color="#14359F"/>
</linearGradient>
<clipPath id="clip0_152_8051">
<rect width="669" height="617" fill="white"/>
</clipPath>
</defs>
</svg>
