<svg width="655" height="666" viewBox="0 0 655 666" fill="none" xmlns="http://www.w3.org/2000/svg">
<path d="M530.181 575.069C525.781 575.069 521.382 574.743 516.982 573.929C364.95 546.389 189.943 494.568 24.0607 428.081C-13.5805 412.926 -31.8308 370.394 -16.6766 332.751C-1.52229 295.107 41.0074 276.856 78.6487 292.011C235.569 354.913 400.473 403.8 543.054 429.711C582.976 436.881 609.374 475.013 602.204 514.938C595.849 550.3 565.052 575.069 530.181 575.069Z" fill="#1F278B"/>
<path d="M524.641 287.774C522.848 287.774 521.219 287.774 519.426 287.611C272.395 270.338 76.6933 242.798 -78.7602 203.362C-118.031 193.422 -141.822 153.497 -131.719 114.224C-121.779 74.9513 -81.8563 51.3224 -42.5855 61.2628C104.232 98.5802 291.46 124.816 529.692 141.438C570.103 144.208 600.575 179.244 597.805 219.658C595.035 258.279 562.771 287.774 524.641 287.774Z" fill="#14359F"/>
<path d="M-9.18093 209.066C-32.8086 209.066 -54.4808 207.762 -72.8941 204.666C-112.817 197.985 -139.703 160.015 -133.022 120.091C-126.341 80.1659 -88.3742 53.2779 -48.4517 59.9592C-10.3216 66.4775 89.0774 61.7517 253.493 29.486C379.616 4.71639 501.502 -28.69 550.061 -51.993C586.561 -69.4295 630.395 -53.9485 647.83 -17.4459C665.266 19.0567 649.785 62.8924 613.285 80.3289C540.121 115.365 388.904 152.193 281.683 173.378C207.379 188.044 84.1889 209.066 -9.18093 209.066Z" fill="url(#paint0_linear_4_3282)"/>
<path d="M182.284 666C143.34 666 111.076 635.527 109.12 596.254C107.165 555.84 138.288 521.456 178.862 519.501C300.26 513.634 406.665 486.094 494.984 437.533C530.507 417.978 574.992 431.014 594.546 466.539C614.1 502.064 601.064 546.552 565.541 566.107C457.506 625.423 329.753 658.993 185.869 666C184.566 666 183.425 666 182.284 666Z" fill="url(#paint1_linear_4_3282)"/>
<path d="M51.4362 433.459C13.9579 433.459 -17.9802 404.941 -21.565 366.809C-25.3129 326.558 4.34387 290.708 44.7553 287.123C245.02 268.708 343.767 230.087 489.281 150.238C524.804 130.846 569.289 143.72 588.843 179.244C608.234 214.769 595.361 259.257 559.838 278.812C484.392 320.203 418.072 353.121 339.856 378.868C258.545 405.593 169.086 422.867 58.2801 433.133C55.9988 433.296 53.7175 433.459 51.4362 433.459Z" fill="url(#paint2_linear_4_3282)"/>
<defs>
<linearGradient id="paint0_linear_4_3282" x1="-133.697" y1="298.843" x2="654.372" y2="301.428" gradientUnits="userSpaceOnUse">
<stop stop-color="#313FAF"/>
<stop offset="0.536458" stop-color="#8307F5"/>
</linearGradient>
<linearGradient id="paint1_linear_4_3282" x1="-21.6133" y1="285.493" x2="597.355" y2="289.451" gradientUnits="userSpaceOnUse">
<stop stop-color="#313FAF"/>
<stop offset="1" stop-color="#8408F6"/>
</linearGradient>
<linearGradient id="paint2_linear_4_3282" x1="-21.6133" y1="285.493" x2="597.355" y2="289.451" gradientUnits="userSpaceOnUse">
<stop stop-color="#313FAF"/>
<stop offset="1" stop-color="#8408F6"/>
</linearGradient>
</defs>
</svg>
